# xmcd
#
# Track frame offsets: 
#        150
#        17830
#        40925
#        63415
#        80929
#        96505
#        123183
#        141475
#        158206
#        176309
#        199049
#        213010
#        235200
#        252218
#
# Disc length: 3623 seconds
#
# Revision: 0
# Processed by: cddbd v1.5.2PL0 Copyright (c) Steve Scherf et al.
# Submitted via: ExactAudioCopy v0.99pb4
#
DISCID=c20e250e
DTITLE=The Revelators (Joe Camilleri) - the adventures of the amazing 
DTITLE=Revelators
DYEAR=2000
DGENRE=Blues
TTITLE0=Bulbs
TTITLE1=Unbreakeable Chain
TTITLE2=Beside You
TTITLE3=Right On
TTITLE4=Mixed Up
TTITLE5=Cypress
TTITLE6=Trust Me
TTITLE7=Gravel Rd
TTITLE8=SinCity
TTITLE9=Raining in My Heart
TTITLE10=Turn Me On
TTITLE11=Matador
TTITLE12=If It's Really Got To Be This Way
TTITLE13=Careless Love
EXTD=
EXTT0=
EXTT1=
EXTT2=
EXTT3=
EXTT4=
EXTT5=
EXTT6=
EXTT7=
EXTT8=
EXTT9=
EXTT10=
EXTT11=
EXTT12=
EXTT13=
PLAYORDER=
